<svg width="1200" height="630" viewBox="0 0 1200 630" fill="none" xmlns="http://www.w3.org/2000/svg">
  <defs>
    <linearGradient id="bg" x1="122" y1="62" x2="1062" y2="590" gradientUnits="userSpaceOnUse">
      <stop stop-color="#FFF8F0"/>
      <stop offset="1" stop-color="#F3ECE1"/>
    </linearGradient>
    <radialGradient id="glowA" cx="0" cy="0" r="1" gradientUnits="userSpaceOnUse" gradientTransform="translate(260 100) rotate(48) scale(310 220)">
      <stop stop-color="#0F766E" stop-opacity="0.24"/>
      <stop offset="1" stop-color="#0F766E" stop-opacity="0"/>
    </radialGradient>
    <radialGradient id="glowB" cx="0" cy="0" r="1" gradientUnits="userSpaceOnUse" gradientTransform="translate(958 166) rotate(136) scale(280 220)">
      <stop stop-color="#D97706" stop-opacity="0.24"/>
      <stop offset="1" stop-color="#D97706" stop-opacity="0"/>
    </radialGradient>
    <linearGradient id="panel" x1="0" y1="0" x2="980" y2="492" gradientUnits="userSpaceOnUse">
      <stop stop-color="white" stop-opacity="0.92"/>
      <stop offset="1" stop-color="white" stop-opacity="0.68"/>
    </linearGradient>
  </defs>

  <rect width="1200" height="630" rx="36" fill="url(#bg)"/>
  <rect width="1200" height="630" rx="36" fill="url(#glowA)"/>
  <rect width="1200" height="630" rx="36" fill="url(#glowB)"/>

  <g opacity="0.3">
    <path d="M0 84H1200" stroke="#8A6F5D" stroke-opacity="0.18"/>
    <path d="M0 132H1200" stroke="#8A6F5D" stroke-opacity="0.18"/>
    <path d="M0 180H1200" stroke="#8A6F5D" stroke-opacity="0.18"/>
    <path d="M0 228H1200" stroke="#8A6F5D" stroke-opacity="0.18"/>
    <path d="M0 276H1200" stroke="#8A6F5D" stroke-opacity="0.18"/>
    <path d="M0 324H1200" stroke="#8A6F5D" stroke-opacity="0.18"/>
    <path d="M0 372H1200" stroke="#8A6F5D" stroke-opacity="0.18"/>
    <path d="M0 420H1200" stroke="#8A6F5D" stroke-opacity="0.18"/>
    <path d="M0 468H1200" stroke="#8A6F5D" stroke-opacity="0.18"/>
    <path d="M0 516H1200" stroke="#8A6F5D" stroke-opacity="0.18"/>
    <path d="M72 0V630" stroke="#8A6F5D" stroke-opacity="0.18"/>
    <path d="M120 0V630" stroke="#8A6F5D" stroke-opacity="0.18"/>
    <path d="M168 0V630" stroke="#8A6F5D" stroke-opacity="0.18"/>
    <path d="M216 0V630" stroke="#8A6F5D" stroke-opacity="0.18"/>
    <path d="M264 0V630" stroke="#8A6F5D" stroke-opacity="0.18"/>
    <path d="M312 0V630" stroke="#8A6F5D" stroke-opacity="0.18"/>
    <path d="M360 0V630" stroke="#8A6F5D" stroke-opacity="0.18"/>
    <path d="M408 0V630" stroke="#8A6F5D" stroke-opacity="0.18"/>
    <path d="M456 0V630" stroke="#8A6F5D" stroke-opacity="0.18"/>
    <path d="M504 0V630" stroke="#8A6F5D" stroke-opacity="0.18"/>
    <path d="M552 0V630" stroke="#8A6F5D" stroke-opacity="0.18"/>
    <path d="M600 0V630" stroke="#8A6F5D" stroke-opacity="0.18"/>
    <path d="M648 0V630" stroke="#8A6F5D" stroke-opacity="0.18"/>
    <path d="M696 0V630" stroke="#8A6F5D" stroke-opacity="0.18"/>
    <path d="M744 0V630" stroke="#8A6F5D" stroke-opacity="0.18"/>
    <path d="M792 0V630" stroke="#8A6F5D" stroke-opacity="0.18"/>
    <path d="M840 0V630" stroke="#8A6F5D" stroke-opacity="0.18"/>
    <path d="M888 0V630" stroke="#8A6F5D" stroke-opacity="0.18"/>
    <path d="M936 0V630" stroke="#8A6F5D" stroke-opacity="0.18"/>
    <path d="M984 0V630" stroke="#8A6F5D" stroke-opacity="0.18"/>
    <path d="M1032 0V630" stroke="#8A6F5D" stroke-opacity="0.18"/>
    <path d="M1080 0V630" stroke="#8A6F5D" stroke-opacity="0.18"/>
  </g>

  <rect x="52" y="52" width="1096" height="526" rx="28" fill="url(#panel)" stroke="#493325" stroke-opacity="0.12"/>

  <g>
    <rect x="82" y="84" width="196" height="34" rx="17" fill="#0F766E" fill-opacity="0.12"/>
    <circle cx="104" cy="101" r="7" fill="url(#panel)" stroke="#0F766E"/>
    <text x="122" y="107" fill="#0F766E" font-family="Arial, sans-serif" font-size="15" font-weight="700" letter-spacing="1.3">AWESOME CODING AGENTS</text>
  </g>

  <g>
    <text x="82" y="226" fill="#24170F" font-family="Arial, sans-serif" font-size="72" font-weight="700">The Coding Agent</text>
    <text x="82" y="302" fill="#24170F" font-family="Arial, sans-serif" font-size="72" font-weight="700">Landscape</text>
    <text x="82" y="352" fill="#6B5749" font-family="Arial, sans-serif" font-size="24">Open-source and proprietary tools, with pricing-aware research,</text>
    <text x="82" y="386" fill="#6B5749" font-family="Arial, sans-serif" font-size="24">brand-aware presentation, and a clearer view of how software work is shifting.</text>
  </g>

  <g>
    <rect x="82" y="436" width="168" height="46" rx="23" fill="#24170F"/>
    <text x="118" y="465" fill="#FFF8F0" font-family="Arial, sans-serif" font-size="18" font-weight="700">15 tools tracked</text>
    <rect x="264" y="436" width="188" height="46" rx="23" fill="#FFFFFF" fill-opacity="0.74" stroke="#493325" stroke-opacity="0.12"/>
    <text x="300" y="465" fill="#24170F" font-family="Arial, sans-serif" font-size="18" font-weight="700">Interactive filters</text>
  </g>

  <g>
    <rect x="714" y="118" width="360" height="348" rx="30" fill="#FFFCF7" fill-opacity="0.84" stroke="#493325" stroke-opacity="0.12"/>
    <path d="M754 420C754 304 848 210 964 210" stroke="#493325" stroke-opacity="0.12" stroke-width="2"/>
    <path d="M754 420H1030" stroke="#493325" stroke-opacity="0.12" stroke-width="2"/>
    <path d="M754 420V168" stroke="#493325" stroke-opacity="0.12" stroke-width="2"/>
    <text x="1000" y="442" fill="#6B5749" font-family="Arial, sans-serif" font-size="13" font-weight="700">More convenience</text>
    <g transform="translate(738 302) rotate(-90)">
      <text x="0" y="0" fill="#6B5749" font-family="Arial, sans-serif" font-size="13" font-weight="700">More delegation</text>
    </g>

    <g>
      <circle cx="832" cy="312" r="18" fill="#6D5EFC" fill-opacity="0.12" stroke="#6D5EFC"/>
      <text x="820" y="317" fill="#6D5EFC" font-family="Arial, sans-serif" font-size="11" font-weight="700">OC</text>
      <rect x="854" y="296" width="92" height="30" rx="15" fill="#FFFFFF" stroke="#493325" stroke-opacity="0.12"/>
      <text x="870" y="315" fill="#24170F" font-family="Arial, sans-serif" font-size="14" font-weight="700">OpenCode</text>
    </g>
    <g>
      <circle cx="948" cy="294" r="18" fill="#111111" fill-opacity="0.12" stroke="#111111"/>
      <text x="938" y="299" fill="#111111" font-family="Arial, sans-serif" font-size="11" font-weight="700">CU</text>
      <rect x="970" y="278" width="78" height="30" rx="15" fill="#FFFFFF" stroke="#493325" stroke-opacity="0.12"/>
      <text x="988" y="297" fill="#24170F" font-family="Arial, sans-serif" font-size="14" font-weight="700">Cursor</text>
    </g>
    <g>
      <circle cx="1018" cy="244" r="18" fill="#171515" fill-opacity="0.12" stroke="#171515"/>
      <text x="1008" y="249" fill="#171515" font-family="Arial, sans-serif" font-size="11" font-weight="700">GC</text>
      <rect x="872" y="226" width="132" height="30" rx="15" fill="#FFFFFF" stroke="#493325" stroke-opacity="0.12"/>
      <text x="890" y="245" fill="#24170F" font-family="Arial, sans-serif" font-size="14" font-weight="700">GitHub Copilot</text>
    </g>
    <g>
      <circle cx="904" cy="218" r="18" fill="#9A3412" fill-opacity="0.12" stroke="#9A3412"/>
      <text x="892" y="223" fill="#9A3412" font-family="Arial, sans-serif" font-size="11" font-weight="700">CC</text>
      <rect x="924" y="202" width="118" height="30" rx="15" fill="#FFFFFF" stroke="#493325" stroke-opacity="0.12"/>
      <text x="942" y="221" fill="#24170F" font-family="Arial, sans-serif" font-size="14" font-weight="700">Claude Code</text>
    </g>
    <g>
      <circle cx="882" cy="182" r="18" fill="#7C2D12" fill-opacity="0.12" stroke="#7C2D12"/>
      <text x="872" y="187" fill="#7C2D12" font-family="Arial, sans-serif" font-size="11" font-weight="700">DV</text>
      <rect x="902" y="166" width="72" height="30" rx="15" fill="#FFFFFF" stroke="#493325" stroke-opacity="0.12"/>
      <text x="920" y="185" fill="#24170F" font-family="Arial, sans-serif" font-size="14" font-weight="700">Devin</text>
    </g>
  </g>

  <g>
    <rect x="722" y="494" width="98" height="42" rx="21" fill="#6D5EFC" fill-opacity="0.11" stroke="#6D5EFC" stroke-opacity="0.35"/>
    <text x="749" y="520" fill="#24170F" font-family="Arial, sans-serif" font-size="18" font-weight="700">BYOK</text>
    <rect x="834" y="494" width="88" height="42" rx="21" fill="#0F766E" fill-opacity="0.11" stroke="#0F766E" stroke-opacity="0.35"/>
    <text x="861" y="520" fill="#24170F" font-family="Arial, sans-serif" font-size="18" font-weight="700">Seat</text>
    <rect x="936" y="494" width="96" height="42" rx="21" fill="#D97706" fill-opacity="0.11" stroke="#D97706" stroke-opacity="0.35"/>
    <text x="956" y="520" fill="#24170F" font-family="Arial, sans-serif" font-size="18" font-weight="700">Credit</text>
  </g>
</svg>
